<svg xmlns="http://www.w3.org/2000/svg" width="16" height="17.438" viewBox="0 0 16 17.438">
  <defs>
    <style>
      .cls-1 {
        fill: #cfcfcf;
        fill-rule: evenodd;
      }
    </style>
  </defs>
  <path id="calendar.svg" class="cls-1" d="M393.643,44.161a1.174,1.174,0,0,0-.865-0.37h-1.231V42.856a1.51,1.51,0,0,0-.452-1.1,1.475,1.475,0,0,0-1.087-.458h-0.616a1.471,1.471,0,0,0-1.086.458,1.507,1.507,0,0,0-.453,1.1v0.935H384.16V42.856a1.51,1.51,0,0,0-.452-1.1,1.472,1.472,0,0,0-1.087-.458h-0.615a1.474,1.474,0,0,0-1.087.458,1.51,1.51,0,0,0-.452,1.1v0.935h-1.231a1.176,1.176,0,0,0-.866.37,1.206,1.206,0,0,0-.365.876V57.494a1.207,1.207,0,0,0,.365.876,1.177,1.177,0,0,0,.866.37h13.541a1.177,1.177,0,0,0,.866-0.37,1.206,1.206,0,0,0,.365-0.876V45.037A1.2,1.2,0,0,0,393.643,44.161ZM382.006,57.494h-2.77v-2.8h2.77v2.8Zm0-3.426h-2.77V50.954h2.77v3.114Zm0-3.737h-2.77v-2.8h2.77v2.8Zm-0.217-4.452a0.3,0.3,0,0,1-.091-0.219v-2.8a0.3,0.3,0,0,1,.091-0.219,0.294,0.294,0,0,1,.217-0.093h0.615a0.294,0.294,0,0,1,.217.093,0.3,0.3,0,0,1,.091.219v2.8a0.3,0.3,0,0,1-.091.219,0.294,0.294,0,0,1-.217.092h-0.615A0.294,0.294,0,0,1,381.789,45.879Zm3.91,11.615h-3.078v-2.8H385.7v2.8Zm0-3.426h-3.078V50.954H385.7v3.114Zm0-3.737h-3.078v-2.8H385.7v2.8Zm3.693,7.163h-3.078v-2.8h3.078v2.8Zm0-3.426h-3.078V50.954h3.078v3.114Zm0-3.737h-3.078v-2.8h3.078v2.8Zm-0.216-4.452a0.3,0.3,0,0,1-.092-0.219v-2.8a0.3,0.3,0,0,1,.092-0.219,0.294,0.294,0,0,1,.216-0.093h0.616a0.294,0.294,0,0,1,.216.093,0.3,0.3,0,0,1,.091.219v2.8a0.3,0.3,0,0,1-.091.219,0.294,0.294,0,0,1-.216.092h-0.616A0.294,0.294,0,0,1,389.176,45.879Zm3.6,11.615h-2.769v-2.8h2.769v2.8Zm0-3.426h-2.769V50.954h2.769v3.114Zm0-3.737h-2.769v-2.8h2.769v2.8Zm-13.683-2.925h13.718V57.5H379.094V47.406Z" transform="translate(-378 -41.313)"/>
</svg>
